<svg viewBox="0 0 402 462" xmlns="http://www.w3.org/2000/svg" version="1.1" style="shape-rendering:geometricPrecision; text-rendering:geometricPrecision; image-rendering:optimizeQuality; fill-rule:evenodd; clip-rule:evenodd" xmlns:xlink="http://www.w3.org/1999/xlink">
<g><path style="opacity:0.945" fill="#FFFFFF" d="M 199.5,10.5 C 201.199,10.3398 202.866,10.5065 204.5,11C 233.649,33.1414 260.649,57.808 285.5,85C 321.219,93.1285 355.885,104.462 389.5,119C 390.127,120.738 390.46,122.571 390.5,124.5C 386.299,160.005 378.966,194.839 368.5,229C 378.476,261.545 385.643,294.712 390,328.5C 390.667,331.833 390.667,335.167 390,338.5C 356.594,353.191 322.094,364.691 286.5,373C 261.02,401.497 232.854,426.663 202,448.5C 171.481,426.998 143.647,402.164 118.5,374C 82.3747,366.069 47.3747,354.736 13.5,340C 12.8729,338.262 12.5396,336.429 12.5,334.5C 16.5732,299.3 23.9065,264.8 34.5,231C 22.5061,194.697 15.0061,157.53 12,119.5C 46.2279,104.202 81.7279,92.7022 118.5,85C 143.544,57.7793 170.544,32.946 199.5,10.5 Z M 201.5,14.5 C 228.964,34.7885 254.464,57.4552 278,82.5C 278.667,83.1667 278.667,83.8333 278,84.5C 259.748,80.6388 241.248,78.6388 222.5,78.5C 203.178,78.9563 183.845,79.123 164.5,79C 151.427,80.1197 138.427,81.453 125.5,83C 149.186,58.1377 174.519,35.3044 201.5,14.5 Z M 87.5,134.5 C 96.7088,118.111 107.709,102.944 120.5,89C 139.307,85.0213 158.307,83.0213 177.5,83C 161.061,86.2558 145.728,92.2558 131.5,101C 115.252,110.081 100.585,121.247 87.5,134.5 Z M 316.5,134.5 C 299.04,116.556 278.707,102.723 255.5,93C 245.498,88.666 235.164,85.3327 224.5,83C 244.81,82.7751 264.81,85.1084 284.5,90C 296.961,103.614 307.627,118.448 316.5,134.5 Z M 244.5,93.5 C 229.15,92.5025 214.484,95.1692 200.5,101.5C 185.114,94.7937 169.114,92.7937 152.5,95.5C 175.198,84.8295 198.864,81.9962 223.5,87C 230.851,88.4147 237.851,90.5814 244.5,93.5 Z M 109.5,90.5 C 110.873,90.3433 112.207,90.51 113.5,91C 96.7934,110.235 82.96,131.402 72,154.5C 57.17,176.16 45.5033,199.493 37,224.5C 26.3136,190.901 19.147,156.568 15.5,121.5C 46.2379,109.143 77.5712,98.8094 109.5,90.5 Z M 290.5,91.5 C 302.439,93.314 314.439,96.1473 326.5,100C 346.725,106.685 366.725,113.852 386.5,121.5C 382.933,155.502 376.1,188.835 366,221.5C 359.565,205.959 352.565,190.626 345,175.5C 336.573,162.319 328.907,148.652 322,134.5C 312.945,119.034 302.445,104.7 290.5,91.5 Z M 226.5,97.5 C 252.961,94.9242 274.461,103.924 291,124.5C 300.341,135.859 305.341,148.859 306,163.5C 280.346,152.355 256.679,155.689 235,173.5C 239.288,144.251 229.454,121.085 205.5,104C 212.402,101.085 219.402,98.9186 226.5,97.5 Z M 159.5,98.5 C 172.051,97.4807 184.051,99.4807 195.5,104.5C 173.305,122.245 164.471,145.245 169,173.5C 146.024,155.169 121.191,152.002 94.5,164C 97.8015,141.066 108.801,122.733 127.5,109C 137.724,103.758 148.391,100.258 159.5,98.5 Z M 200.5,106.5 C 226.345,122.819 236.178,146.152 230,176.5C 217.899,189.685 208.566,204.685 202,221.5C 195.764,205.346 186.764,191.013 175,178.5C 167.169,148.483 175.669,124.483 200.5,106.5 Z M 291.5,118.5 C 306.186,129.353 318.686,142.353 329,157.5C 336.145,172.414 340.645,188.081 342.5,204.5C 336.62,188.616 326.62,175.949 312.5,166.5C 310.132,148.372 303.132,132.372 291.5,118.5 Z M 105.5,124.5 C 96.4965,137.336 91.3299,151.669 90,167.5C 76.5738,176.663 67.2404,188.997 62,204.5C 63.3888,187.285 68.0555,170.952 76,155.5C 84.3168,143.684 94.1501,133.351 105.5,124.5 Z M 61.5,180.5 C 53.9992,214.627 54.3325,248.627 62.5,282.5C 52.835,266.328 45.1683,249.161 39.5,231C 44.6258,213.094 51.9591,196.261 61.5,180.5 Z M 342.5,180.5 C 351.13,195.865 358.13,212.032 363.5,229C 358.269,245.217 351.602,260.717 343.5,275.5C 348.337,252.181 349.504,228.515 347,204.5C 345.818,196.426 344.318,188.426 342.5,180.5 Z M 365.5,236.5 C 376.06,268.959 383.06,302.293 386.5,336.5C 366.725,344.148 346.725,351.315 326.5,358C 315.323,361.629 303.99,364.295 292.5,366C 303.193,352.782 313.026,338.949 322,324.5C 332.633,304.52 343.3,284.52 354,264.5C 358.125,255.255 361.958,245.922 365.5,236.5 Z M 36.5,237.5 C 45.4237,261.681 57.2571,284.347 72,305.5C 83.227,328.137 97.0603,348.971 113.5,368C 101.048,365.804 88.7151,362.804 76.5,359C 56.2746,352.315 36.2746,345.148 16.5,337.5C 20.2204,303.565 26.8871,270.231 36.5,237.5 Z"/></g>
<g><path style="opacity:1" fill="#c70000" d="M 120.5,160.5 C 140.195,160.103 157.029,166.77 171,180.5C 175.851,196.708 183.685,211.208 194.5,224C 182.519,223.525 170.519,223.525 158.5,224C 152.738,224.69 147.071,225.857 141.5,227.5C 112.089,218.756 96.7552,199.256 95.5,169C 103.45,164.629 111.783,161.795 120.5,160.5 Z"/></g>
<g><path style="opacity:1" fill="#c70000" d="M 275.5,160.5 C 286.763,160.274 297.263,162.941 307,168.5C 305.447,199.562 289.614,219.229 259.5,227.5C 242.94,224.48 226.274,223.647 209.5,225C 220.315,212.208 228.149,197.708 233,181.5C 244.592,169.287 258.759,162.287 275.5,160.5 Z"/></g>
<g><path style="opacity:1" fill="#c70000" d="M 311.5,171.5 C 320.148,176.649 326.981,183.649 332,192.5C 348.695,222.043 346.362,250.043 325,276.5C 321.3,280.535 317.3,284.202 313,287.5C 308.967,259.472 293.8,240.306 267.5,230C 293.737,219.256 308.404,199.756 311.5,171.5 Z"/></g>
<g><path style="opacity:1" fill="#c70000" d="M 89.5,172.5 C 93.8051,199.979 108.805,219.145 134.5,230C 108.689,240.493 94.1885,259.66 91,287.5C 66.3827,267.273 57.3827,241.607 64,210.5C 68.8102,195.22 77.3102,182.553 89.5,172.5 Z"/></g>
<g><path style="opacity:1" fill="#c70000" d="M 178.5,189.5 C 185.224,197.256 190.724,205.923 195,215.5C 195.667,216.5 195.667,217.5 195,218.5C 187.958,209.754 182.458,200.088 178.5,189.5 Z"/></g>
<g><path style="opacity:1" fill="#c70000" d="M 224.5,189.5 C 225.573,190.251 225.74,191.251 225,192.5C 220.525,202.623 214.858,211.956 208,220.5C 209.102,215.273 211.102,210.273 214,205.5C 217.329,200.014 220.829,194.68 224.5,189.5 Z"/></g>
<g><path style="opacity:1" fill="#c70000" d="M 159.5,227.5 C 170.873,227.207 182.206,227.707 193.5,229C 191.038,230.216 188.371,230.882 185.5,231C 174.128,231.826 162.794,231.492 151.5,230C 154.166,228.939 156.833,228.106 159.5,227.5 Z"/></g>
<g><path style="opacity:1" fill="#c70000" d="M 218.5,228.5 C 228.889,228.13 239.223,228.63 249.5,230C 236.833,232 224.167,232 211.5,230C 214.036,229.814 216.369,229.314 218.5,228.5 Z"/></g>
<g><path style="opacity:1" fill="#c70000" d="M 140.5,231.5 C 146.082,232.983 151.749,234.15 157.5,235C 169.519,235.475 181.519,235.475 193.5,235C 182.35,248.46 174.183,263.627 169,280.5C 146.97,299.576 122.803,302.909 96.5,290.5C 96.1442,269.712 104.478,253.212 121.5,241C 127.647,237.26 133.98,234.093 140.5,231.5 Z"/></g>
<g><path style="opacity:1" fill="#c70000" d="M 255.5,232.5 C 279.548,235.789 296.048,248.789 305,271.5C 307.296,277.731 308.129,284.065 307.5,290.5C 279.396,303.506 254.229,299.173 232,277.5C 226.873,261.739 219.04,247.572 208.5,235C 220.481,235.475 232.481,235.475 244.5,235C 248.392,234.581 252.058,233.748 255.5,232.5 Z"/></g>
<g><path style="opacity:1" fill="#c70000" d="M 196.5,236.5 C 197.043,236.56 197.376,236.893 197.5,237.5C 192.525,249.457 186.025,260.457 178,270.5C 179.438,264.602 181.772,258.936 185,253.5C 188.663,247.679 192.497,242.012 196.5,236.5 Z"/></g>
<g><path style="opacity:1" fill="#c70000" d="M 201.5,237.5 C 208.046,252.921 216.879,266.921 228,279.5C 235.23,305.794 229.063,328.294 209.5,347C 206.582,348.709 203.748,350.542 201,352.5C 176.257,335.97 166.923,312.97 173,283.5C 185.556,270.1 195.056,254.766 201.5,237.5 Z"/></g>
<g><path style="opacity:1" fill="#c70000" d="M 209.5,243.5 C 215.49,249.815 219.657,257.149 222,265.5C 217.05,258.599 212.884,251.266 209.5,243.5 Z"/></g>
<g><path style="opacity:1" fill="#c70000" d="M 61.5,254.5 C 67.0903,270.007 76.757,282.34 90.5,291.5C 92.2148,309.494 98.8814,325.327 110.5,339C 108.369,338.602 106.369,337.602 104.5,336C 94.9603,327.128 86.1269,317.628 78,307.5C 68.9729,290.919 63.4729,273.253 61.5,254.5 Z"/></g>
<g><path style="opacity:1" fill="#c70000" d="M 341.5,254.5 C 340.822,270.526 336.655,285.859 329,300.5C 319.761,313.741 309.094,325.741 297,336.5C 300.504,330.503 303.837,324.17 307,317.5C 309.867,308.997 312.033,300.33 313.5,291.5C 327.373,282.624 336.706,270.291 341.5,254.5 Z"/></g>
<g><path style="opacity:1" fill="#c70000" d="M 233.5,284.5 C 256.229,303.199 281.229,307.033 308.5,296C 298.69,342.457 270.024,363.791 222.5,360C 216.6,359.108 210.933,357.442 205.5,355C 229.404,337.483 238.737,313.983 233.5,284.5 Z"/></g>
<g><path style="opacity:1" fill="#c70000" d="M 167.5,286.5 C 163.731,314.518 173.064,337.185 195.5,354.5C 186.803,359.174 177.47,361.174 167.5,360.5C 151.402,361.299 137.069,356.799 124.5,347C 113.781,338.048 105.614,327.214 100,314.5C 97.631,307.989 96.2977,301.322 96,294.5C 121.534,306.685 145.367,304.018 167.5,286.5 Z"/></g>
<g><path style="opacity:1" fill="#c70000" d="M 316.5,322.5 C 317.465,323.721 317.298,325.054 316,326.5C 306.992,341.176 296.825,355.01 285.5,368C 267.732,372.3 249.732,374.634 231.5,375C 246.449,371.192 260.449,365.192 273.5,357C 281.167,352 288.833,347 296.5,342C 303.671,335.996 310.338,329.496 316.5,322.5 Z"/></g>
<g><path style="opacity:1" fill="#c70000" d="M 89.5,327.5 C 107.999,345.262 129.332,358.762 153.5,368C 162.604,371.479 171.937,374.146 181.5,376C 160.947,376.39 140.614,374.39 120.5,370C 108.764,356.778 98.4306,342.611 89.5,327.5 Z"/></g>
<g><path style="opacity:1" fill="#c70000" d="M 198.5,357.5 C 206.107,359.756 213.774,361.923 221.5,364C 225.85,364.368 230.183,364.868 234.5,365.5C 240.175,364.599 245.841,364.099 251.5,364C 220.329,377.609 188.995,377.943 157.5,365C 170.127,365.818 182.46,364.152 194.5,360C 196.066,359.392 197.4,358.558 198.5,357.5 Z"/></g>
<g><path style="opacity:1" fill="#c70000" d="M 278.5,373.5 C 279.239,373.369 279.906,373.536 280.5,374C 256.207,399.706 230.041,423.206 202,444.5C 174.661,423.833 149.161,401 125.5,376C 143.869,378.572 162.369,380.072 181,380.5C 200.165,379.935 219.332,379.435 238.5,379C 252.108,378.134 265.441,376.301 278.5,373.5 Z"/></g>
</svg>
